<svg width="25" height="29" viewBox="0 0 25 29" fill="none" xmlns="http://www.w3.org/2000/svg">
<path d="M19.9361 0.712891C18.39 0.813729 16.583 1.74691 15.5299 2.96211C14.5693 4.0645 13.7791 5.70184 14.0872 7.29305C15.7764 7.34261 17.5218 6.38721 18.5332 5.1515C19.4793 4.00126 20.1953 2.37417 19.9361 0.712891Z" fill="#444B59"/>
<path d="M23.9315 9.8872C22.447 8.13192 20.3608 7.11328 18.3907 7.11328C15.7897 7.11328 14.6896 8.28745 12.8825 8.28745C11.0193 8.28745 9.60371 7.1167 7.35441 7.1167C5.14498 7.1167 2.79237 8.39 1.30069 10.5674C-0.796363 13.6336 -0.43749 19.3985 2.96093 24.3089C4.17711 26.0658 5.8011 28.0416 7.92534 28.0587C9.81577 28.0758 10.3486 26.9153 12.9097 26.9033C15.4707 26.8896 15.9565 28.0741 17.8433 28.0553C19.9694 28.0399 21.6822 25.8505 22.8983 24.0935C23.7701 22.8339 24.0946 22.1998 24.7706 20.7778C19.8533 19.0123 19.0649 12.4184 23.9315 9.8872Z" fill="#444B59"/>
</svg>
