<svg width="34" height="30" viewBox="0 0 34 30" fill="none" xmlns="http://www.w3.org/2000/svg">
<path d="M30.6 3.33333H25.211L22.1 0H11.9L8.789 3.33333H3.4C1.53 3.33333 0 4.83333 0 6.66667V26.6667C0 28.5 1.53 30 3.4 30H30.6C32.47 30 34 28.5 34 26.6667V6.66667C34 4.83333 32.47 3.33333 30.6 3.33333ZM30.6 26.6667H3.4V6.66667H10.285L13.396 3.33333H20.604L23.715 6.66667H30.6V26.6667ZM17 8.33333C12.308 8.33333 8.5 12.0667 8.5 16.6667C8.5 21.2667 12.308 25 17 25C21.692 25 25.5 21.2667 25.5 16.6667C25.5 12.0667 21.692 8.33333 17 8.33333ZM17 21.6667C14.195 21.6667 11.9 19.4167 11.9 16.6667C11.9 13.9167 14.195 11.6667 17 11.6667C19.805 11.6667 22.1 13.9167 22.1 16.6667C22.1 19.4167 19.805 21.6667 17 21.6667Z" fill="#7C8475"/>
</svg>
