<svg width="27" height="27" viewBox="0 0 27 27" fill="none" xmlns="http://www.w3.org/2000/svg">
<path d="M22.5 4.5H18.9338L16.875 2.25H10.125L8.06625 4.5H4.5C3.2625 4.5 2.25 5.5125 2.25 6.75V20.25C2.25 21.4875 3.2625 22.5 4.5 22.5H22.5C23.7375 22.5 24.75 21.4875 24.75 20.25V6.75C24.75 5.5125 23.7375 4.5 22.5 4.5ZM22.5 20.25H4.5V6.75H9.05625L11.115 4.5H15.885L17.9438 6.75H22.5V20.25ZM13.5 7.875C10.395 7.875 7.875 10.395 7.875 13.5C7.875 16.605 10.395 19.125 13.5 19.125C16.605 19.125 19.125 16.605 19.125 13.5C19.125 10.395 16.605 7.875 13.5 7.875ZM13.5 16.875C11.6438 16.875 10.125 15.3562 10.125 13.5C10.125 11.6438 11.6438 10.125 13.5 10.125C15.3563 10.125 16.875 11.6438 16.875 13.5C16.875 15.3562 15.3563 16.875 13.5 16.875Z" fill="white"/>
</svg>
