<svg width="20" height="20" viewBox="0 0 20 20" fill="white" xmlns="http://www.w3.org/2000/svg">
<path d="M6.66785 0.96582H9.34192V1.41577H10.3076V0.902832C10.3077 0.405029 9.90295 0 9.4054 0H6.60437C6.10681 0 5.70203 0.405029 5.70203 0.902832V1.41577H6.66785V0.96582Z" fill="white"/>
<path d="M12.5379 5.24219H3.47193C3.22352 5.24219 3.02796 5.4541 3.04798 5.70178L3.80592 15.0739C3.84815 15.597 4.28455 16 4.80885 16H11.2008C11.7251 16 12.1615 15.597 12.2037 15.0737L12.9617 5.70178C12.9818 5.4541 12.7863 5.24219 12.5379 5.24219ZM5.66712 15.0004C5.65699 15.001 5.64686 15.0013 5.63685 15.0013C5.38367 15.0013 5.17115 14.8042 5.1554 14.5481L4.68043 6.85413C4.66407 6.58789 4.86658 6.35876 5.1327 6.34241C5.39796 6.32629 5.62806 6.52832 5.64442 6.79468L6.11927 14.4886C6.13575 14.7549 5.93323 14.9839 5.66712 15.0004ZM8.49317 14.5184C8.49317 14.785 8.27699 15.0012 8.01026 15.0012C7.74354 15.0012 7.52735 14.785 7.52735 14.5184V6.82434C7.52735 6.55762 7.74354 6.34143 8.01026 6.34143C8.27686 6.34143 8.49317 6.55762 8.49317 6.82434V14.5184ZM11.3294 6.85278L10.8759 14.5468C10.8608 14.8033 10.648 15.0012 10.3943 15.0012C10.3848 15.0012 10.3751 15.001 10.3655 15.0005C10.0993 14.9847 9.89613 14.7562 9.91187 14.49L10.3652 6.7959C10.3809 6.52966 10.6087 6.32654 10.8756 6.34229C11.1419 6.35791 11.345 6.58655 11.3294 6.85278Z" fill="white"/>
<path d="M14.2078 3.75208L13.8907 2.80139C13.8071 2.55078 13.5724 2.38171 13.3082 2.38171H2.70158C2.43742 2.38171 2.20268 2.55078 2.11919 2.80139L1.80205 3.75208C1.74089 3.93542 1.82048 4.12244 1.96904 4.2157C2.02959 4.25366 2.10124 4.27649 2.17998 4.27649H13.8299C13.9086 4.27649 13.9804 4.25366 14.0408 4.21558C14.1894 4.12231 14.269 3.9353 14.2078 3.75208Z" fill="white"/>
</svg>
