<svg width="27" height="25" viewBox="0 0 27 25" fill="none" xmlns="http://www.w3.org/2000/svg">
<path d="M13.4999 24.8746C12.6668 24.0881 11.7252 23.27 10.7293 22.3996H10.7164C7.20953 19.3471 3.23507 15.8931 1.4797 11.7543C0.902992 10.4367 0.597366 9.00314 0.583267 7.54959C0.579415 5.55513 1.33086 3.6432 2.66778 2.2459C4.00471 0.848598 5.81425 0.0838852 7.68745 0.124593C9.21243 0.127157 10.7046 0.596329 11.9861 1.47622C12.5492 1.8653 13.0587 2.33594 13.4999 2.87459C13.9436 2.33806 14.4533 1.86769 15.0151 1.47622C16.2961 0.596155 17.7878 0.126956 19.3124 0.124593C21.1856 0.0838852 22.9952 0.848598 24.3321 2.2459C25.669 3.6432 26.4205 5.55513 26.4166 7.54959C26.4035 9.00546 26.0978 10.4415 25.5202 11.7612C23.7648 15.9 19.7917 19.3526 16.2848 22.3996L16.2719 22.4106C15.2747 23.2755 14.3344 24.0936 13.5012 24.8856L13.4999 24.8746ZM7.68745 2.87459C6.48427 2.85856 5.32379 3.34875 4.45828 4.23859C3.62436 5.11057 3.15829 6.30528 3.16651 7.54959C3.18124 8.60903 3.40664 9.65314 3.82795 10.6131C4.65657 12.3988 5.77463 14.0149 7.13074 15.3871C8.41078 16.7621 9.88328 18.0931 11.1569 19.2123C11.5095 19.5217 11.8686 19.8338 12.2277 20.146L12.4537 20.3426C12.7986 20.6423 13.1551 20.9531 13.4999 21.2583L13.5167 21.2418L13.5245 21.235H13.5322L13.5439 21.2253H13.5503H13.5568L13.58 21.2047L13.633 21.1593L13.642 21.1511L13.6562 21.1401H13.664L13.6756 21.1291L14.5333 20.3797L14.758 20.1831C15.121 19.8682 15.4801 19.5561 15.8327 19.2467C17.1063 18.1275 18.5801 16.7978 19.8601 15.416C21.2164 14.0445 22.3345 12.4288 23.1629 10.6433C23.5918 9.67507 23.8204 8.62004 23.8333 7.54959C23.8387 6.30912 23.3728 5.11899 22.5416 4.24959C21.6778 3.35573 20.5171 2.86151 19.3124 2.87459C17.8424 2.86129 16.4371 3.51722 15.4504 4.67722L13.4999 7.06972L11.5495 4.67722C10.5628 3.51722 9.15746 2.86129 7.68745 2.87459Z" fill="white"/>
</svg>
