<svg width="19" height="18" viewBox="0 0 19 18" fill="none" xmlns="http://www.w3.org/2000/svg">
<path fill-rule="evenodd" clip-rule="evenodd" d="M9.02019 0.000184523C19.5001 0.0380486 18.0404 0.000177383 18.0403 9.00017C18.0403 18.0002 18.1511 18.0002 9.02019 18.0002C-0.110695 18.0002 6.21334e-05 17.9946 6.21337e-05 9.00017C6.2134e-05 0.00572395 6.29425e-05 -0.00437059 9.02019 0.000184523Z" fill="url(#paint0_linear_1307_6273)"/>
<path d="M10.1927 17.9251V10.9734H12.1569L12.4173 8.52671H10.1927L10.196 7.30203C10.196 6.66388 10.2567 6.3221 11.1754 6.3221H12.4035V3.875H10.4388C8.07893 3.875 7.24843 5.06185 7.24843 7.05805V8.5269H5.77734V10.9738H7.24843V17.8266C7.82153 17.9405 8.41402 18.0007 9.02066 18.0007C9.41256 18.0007 9.80404 17.9755 10.1927 17.9251Z" fill="white"/>
<defs>
<linearGradient id="paint0_linear_1307_6273" x1="9.02014" y1="-0.163745" x2="9.02014" y2="18.7677" gradientUnits="userSpaceOnUse">
<stop offset="1" />
</linearGradient>
</defs>
</svg>
