<svg width="23" height="25" viewBox="0 0 23 25" fill="none" xmlns="http://www.w3.org/2000/svg">
<g clip-path="url(#clip0_1105_9055)">
<path d="M5.04673 10.0762C5.49511 8.68574 6.36047 7.47595 7.51934 6.6194C8.67821 5.76285 10.0714 5.3033 11.5001 5.30631C13.1197 5.30631 14.5841 5.89567 15.7341 6.86025L19.0806 3.43117C17.0412 1.60907 14.4279 0.484375 11.5001 0.484375C6.96723 0.484375 3.06489 3.13452 1.18848 7.01643L5.04673 10.0762Z" fill="#EA4335"/>
<path d="M15.3718 18.1776C14.3272 18.8681 13.0008 19.2365 11.5001 19.2365C10.077 19.2395 8.68911 18.7836 7.53282 17.9334C6.37652 17.0831 5.51045 15.8817 5.05721 14.499L1.18555 17.5116C2.13549 19.4823 3.6056 21.1405 5.42888 22.2978C7.25216 23.455 9.35554 24.065 11.5001 24.0584C14.3109 24.0584 16.9961 23.0339 19.0077 21.1116L15.3727 18.1776H15.3718Z" fill="#34A853"/>
<path d="M19.0076 21.1116C21.1111 19.0999 22.4768 16.106 22.4768 12.2712C22.4768 11.5738 22.3723 10.8244 22.2161 10.1279H11.5V14.6827H17.6678C17.364 16.214 16.5466 17.3996 15.3726 18.1776L19.0076 21.1116Z" fill="#4A90E2"/>
<path d="M5.05724 14.4995C4.82279 13.7814 4.70368 13.029 4.70457 12.2717C4.70457 11.5036 4.82436 10.7659 5.04669 10.0764L1.18844 7.0166C0.39914 8.6498 -0.00774328 10.4491 0.000111602 12.2717C0.000111602 14.1577 0.42657 15.9356 1.18557 17.5121L5.05724 14.4995Z" fill="#FBBC05"/>
</g>
<defs>
<clipPath id="clip0_1105_9055">
<rect width="23" height="23.5743" fill="white" transform="translate(0 0.484375)"/>
</clipPath>
</defs>
</svg>
