<svg width="24" height="24" viewBox="0 0 22 26" fill="none" xmlns="http://www.w3.org/2000/svg">
<path d="M20.333 25.3335H1.66634C0.929961 25.3335 0.333008 24.7365 0.333008 24.0001V11.2188C0.333008 10.8652 0.473609 10.5261 0.723674 10.2761L10.057 0.942807C10.3071 0.692437 10.6465 0.551758 11.0003 0.551758C11.3542 0.551758 11.6936 0.692437 11.9437 0.942807L21.277 10.2761C21.5273 10.5258 21.6675 10.8652 21.6663 11.2188V24.0001C21.6663 24.7365 21.0694 25.3335 20.333 25.3335ZM6.99967 14.6668H14.9997V22.6668L18.9997 22.6668V11.7708L10.9997 3.77081L2.99967 11.7708V22.6668H6.99967V14.6668Z" fill="#101010"/>
</svg>
