<svg width="19" height="18" viewBox="0 0 19 18" fill="none" xmlns="http://www.w3.org/2000/svg">
<g clip-path="url(#clip0_1307_6276)">
<path d="M4.67395 17.9363C3.60348 17.8877 3.02197 17.7095 2.63519 17.5587C2.1227 17.3591 1.75731 17.1216 1.37267 16.7375C0.988033 16.3534 0.749973 15.988 0.551501 15.4755C0.400641 15.0887 0.222497 14.5072 0.173815 13.4367C0.120318 12.2796 0.109619 11.9324 0.109619 9.0008C0.109619 6.06919 0.121388 5.72253 0.17328 4.56433C0.221962 3.49386 0.401176 2.91342 0.550966 2.52557C0.750508 2.01308 0.988568 1.6477 1.37214 1.26252C1.75624 0.878414 2.12163 0.639819 2.63466 0.441347C3.02144 0.290487 3.60295 0.112343 4.67341 0.0636609C5.83108 0.0106993 6.17881 0 9.10935 0C12.041 0 12.3876 0.0117693 13.5458 0.0636609C14.6163 0.112343 15.1967 0.291556 15.5846 0.441347C16.0971 0.639819 16.4625 0.878414 16.8471 1.26252C17.2317 1.64663 17.4687 2.01254 17.6683 2.52504C17.8191 2.91182 17.9973 3.49333 18.046 4.56379C18.0989 5.722 18.1096 6.06865 18.1096 9.00027C18.1096 11.9308 18.0989 12.2785 18.046 13.4367C17.9973 14.5072 17.8181 15.0887 17.6683 15.4755C17.4687 15.988 17.2312 16.3534 16.8471 16.7375C16.463 17.1216 16.0971 17.3591 15.5846 17.5587C15.1978 17.7095 14.6163 17.8877 13.5458 17.9363C12.3887 17.9893 12.041 18 9.10935 18C6.17881 18 5.83108 17.9898 4.67395 17.9363Z" fill="url(#paint0_radial_1307_6276)"/>
<path d="M4.67395 17.9363C3.60348 17.8877 3.02197 17.7095 2.63519 17.5587C2.1227 17.3591 1.75731 17.1216 1.37267 16.7375C0.988033 16.3534 0.749973 15.988 0.551501 15.4755C0.400641 15.0887 0.222497 14.5072 0.173815 13.4367C0.120318 12.2796 0.109619 11.9324 0.109619 9.0008C0.109619 6.06919 0.121388 5.72253 0.17328 4.56433C0.221962 3.49386 0.401176 2.91342 0.550966 2.52557C0.750508 2.01308 0.988568 1.6477 1.37214 1.26252C1.75624 0.878414 2.12163 0.639819 2.63466 0.441347C3.02144 0.290487 3.60295 0.112343 4.67341 0.0636609C5.83108 0.0106993 6.17881 0 9.10935 0C12.041 0 12.3876 0.0117693 13.5458 0.0636609C14.6163 0.112343 15.1967 0.291556 15.5846 0.441347C16.0971 0.639819 16.4625 0.878414 16.8471 1.26252C17.2317 1.64663 17.4687 2.01254 17.6683 2.52504C17.8191 2.91182 17.9973 3.49333 18.046 4.56379C18.0989 5.722 18.1096 6.06865 18.1096 9.00027C18.1096 11.9308 18.0989 12.2785 18.046 13.4367C17.9973 14.5072 17.8181 15.0887 17.6683 15.4755C17.4687 15.988 17.2312 16.3534 16.8471 16.7375C16.463 17.1216 16.0971 17.3591 15.5846 17.5587C15.1978 17.7095 14.6163 17.8877 13.5458 17.9363C12.3887 17.9893 12.041 18 9.10935 18C6.17881 18 5.83108 17.9898 4.67395 17.9363Z" fill="url(#paint1_radial_1307_6276)"/>
<path d="M6.89981 9.03864C6.89981 7.80763 7.89747 6.80943 9.12848 6.80943C10.3595 6.80943 11.3577 7.80763 11.3577 9.03864C11.3577 10.2696 10.3595 11.2678 9.12848 11.2678C7.89747 11.2678 6.89981 10.2696 6.89981 9.03864ZM5.69475 9.03864C5.69475 10.9351 7.23203 12.4724 9.12848 12.4724C11.0249 12.4724 12.5622 10.9351 12.5622 9.03864C12.5622 7.14218 11.0249 5.6049 9.12848 5.6049C7.23203 5.6049 5.6948 7.14208 5.6948 9.03864M11.8958 5.46876C11.8957 5.62747 11.9427 5.78263 12.0308 5.91463C12.1189 6.04662 12.2442 6.14953 12.3908 6.21032C12.5374 6.27111 12.6988 6.28707 12.8544 6.25617C13.0101 6.22527 13.1531 6.1489 13.2654 6.03672C13.3777 5.92454 13.4541 5.78159 13.4852 5.62594C13.5162 5.47029 13.5004 5.30894 13.4397 5.16229C13.379 5.01564 13.2762 4.89027 13.1443 4.80204C13.0124 4.71382 12.8572 4.66669 12.6985 4.66663H12.6982C12.4855 4.66673 12.2815 4.75126 12.131 4.90166C11.9805 5.05205 11.8959 5.25602 11.8958 5.46876ZM6.4269 14.4818C5.77494 14.4521 5.42058 14.3435 5.18509 14.2518C4.87288 14.1302 4.65012 13.9855 4.41591 13.7516C4.1817 13.5177 4.03673 13.2951 3.91572 12.9829C3.82392 12.7476 3.71532 12.3931 3.68568 11.7411C3.65326 11.0363 3.64679 10.8245 3.64679 9.03874C3.64679 7.25297 3.6538 7.04182 3.68568 6.33636C3.71537 5.6844 3.82477 5.33063 3.91572 5.09455C4.03726 4.78234 4.18202 4.55958 4.41591 4.32537C4.6498 4.09116 4.87234 3.94619 5.18509 3.82518C5.42047 3.73338 5.77494 3.62478 6.4269 3.59514C7.13177 3.56273 7.34351 3.55625 9.12848 3.55625C10.9134 3.55625 11.1254 3.56315 11.8309 3.59525C12.4828 3.62494 12.8366 3.73434 13.0727 3.82529C13.3849 3.9463 13.6076 4.09159 13.8419 4.32548C14.0761 4.55937 14.2205 4.78245 14.342 5.09465C14.4338 5.33004 14.5424 5.68451 14.5721 6.33647C14.6045 7.04193 14.611 7.25308 14.611 9.03885C14.611 10.8246 14.6045 11.0358 14.5721 11.7412C14.5424 12.3932 14.4333 12.7476 14.342 12.983C14.2205 13.2953 14.0757 13.518 13.8419 13.7517C13.608 13.9854 13.3849 14.1303 13.0727 14.2519C12.8373 14.3437 12.4828 14.4523 11.8309 14.4819C11.126 14.5143 10.9143 14.5208 9.12848 14.5208C7.34271 14.5208 7.13156 14.5143 6.4269 14.4819M6.37153 2.39206C5.65965 2.42448 5.17321 2.53736 4.74839 2.70266C4.3087 2.87337 3.93599 3.10239 3.56382 3.47397C3.19164 3.84556 2.96321 4.21833 2.7925 4.65855C2.6272 5.08363 2.51432 5.56981 2.4819 6.28169C2.44895 6.99469 2.44141 7.22264 2.44141 9.03864C2.44141 10.8546 2.44895 11.0826 2.4819 11.7956C2.51432 12.5075 2.6272 12.9936 2.7925 13.4187C2.96321 13.8584 3.1917 14.2319 3.56382 14.6033C3.93594 14.9747 4.30817 15.2034 4.74839 15.3746C5.17401 15.5399 5.65965 15.6528 6.37153 15.6852C7.08491 15.7176 7.31249 15.7257 9.12848 15.7257C10.9445 15.7257 11.1724 15.7182 11.8854 15.6852C12.5974 15.6528 13.0835 15.5399 13.5086 15.3746C13.9483 15.2034 14.321 14.9749 14.6931 14.6033C15.0653 14.2317 15.2933 13.8584 15.4645 13.4187C15.6298 12.9936 15.7432 12.5075 15.7751 11.7956C15.8075 11.082 15.815 10.8546 15.815 9.03864C15.815 7.22264 15.8075 6.99469 15.7751 6.28169C15.7426 5.56976 15.6298 5.08337 15.4645 4.65855C15.2933 4.21886 15.0647 3.84615 14.6931 3.47397C14.3216 3.1018 13.9483 2.87337 13.5091 2.70266C13.0835 2.53736 12.5973 2.42394 11.886 2.39206C11.1729 2.35948 10.945 2.35156 9.12928 2.35156C7.31356 2.35156 7.08518 2.35911 6.3718 2.39206" fill="white"/>
</g>
<defs>
<radialGradient id="paint0_radial_1307_6276" cx="0" cy="0" r="1" gradientUnits="userSpaceOnUse" gradientTransform="translate(1.27456 17.6057) scale(22.8533)">
<stop offset="0.09" />
<stop offset="0.78" />
</radialGradient>
<radialGradient id="paint1_radial_1307_6276" cx="0" cy="0" r="1" gradientUnits="userSpaceOnUse" gradientTransform="translate(12.5776 17.0277) scale(20.1111)">
<stop offset="1" />
</radialGradient>
<clipPath id="clip0_1307_6276">
<rect width="18" height="18" fill="white" transform="translate(0.109619)"/>
</clipPath>
</defs>
</svg>
