<svg width="24" height="24" viewBox="0 0 27 25" fill="none" xmlns="http://www.w3.org/2000/svg">
<path d="M13.4997 24.8751C12.6666 24.0886 11.725 23.2705 10.7291 22.4001H10.7162C7.20929 19.3476 3.23483 15.8936 1.47945 11.7548C0.902747 10.4372 0.597122 9.00363 0.583023 7.55008C0.579171 5.55562 1.33062 3.64369 2.66754 2.24639C4.00446 0.849086 5.81401 0.0843735 7.6872 0.125081C9.21218 0.127645 10.7043 0.596818 11.9859 1.47671C12.549 1.86579 13.0585 2.33643 13.4997 2.87508C13.9434 2.33855 14.453 1.86818 15.0148 1.47671C16.2958 0.596644 17.7876 0.127444 19.3122 0.125081C21.1854 0.0843735 22.9949 0.849086 24.3319 2.24639C25.6688 3.64369 26.4202 5.55562 26.4164 7.55008C26.4032 9.00595 26.0976 10.442 25.52 11.7617C23.7646 15.9005 19.7914 19.3531 16.2845 22.4001L16.2716 22.4111C15.2745 23.276 14.3341 24.0941 13.501 24.8861L13.4997 24.8751ZM7.6872 2.87508C6.48403 2.85905 5.32355 3.34924 4.45804 4.23908C3.62412 5.11106 3.15805 6.30577 3.16626 7.55008C3.181 8.60952 3.4064 9.65363 3.8277 10.6136C4.65632 12.3993 5.77439 14.0154 7.1305 15.3876C8.41054 16.7626 9.88304 18.0936 11.1566 19.2128C11.5092 19.5222 11.8683 19.8343 12.2274 20.1465L12.4535 20.3431C12.7983 20.6428 13.1548 20.9536 13.4997 21.2588L13.5165 21.2423L13.5242 21.2355H13.532L13.5436 21.2258H13.5501H13.5565L13.5798 21.2052L13.6327 21.1598L13.6418 21.1516L13.656 21.1406H13.6637L13.6754 21.1296L14.533 20.3802L14.7578 20.1836C15.1207 19.8687 15.4798 19.5566 15.8325 19.2472C17.106 18.128 18.5798 16.7983 19.8599 15.4165C21.2162 14.045 22.3343 12.4293 23.1627 10.6438C23.5916 9.67556 23.8202 8.62053 23.8331 7.55008C23.8384 6.30961 23.3726 5.11948 22.5414 4.25008C21.6775 3.35622 20.5168 2.86199 19.3122 2.87508C17.8422 2.86178 16.4369 3.51771 15.4501 4.67771L13.4997 7.07021L11.5493 4.67771C10.5625 3.51771 9.15722 2.86178 7.6872 2.87508Z" fill="#fff"/>
</svg>
