<svg width="76" height="75" viewBox="0 0 76 75" fill="none" xmlns="http://www.w3.org/2000/svg">
<path d="M37.9995 74.5893C58.4834 74.5893 75.0888 57.9839 75.0888 37.5C75.0888 17.0161 58.4834 0.410645 37.9995 0.410645C17.5156 0.410645 0.910156 17.0161 0.910156 37.5C0.910156 57.9839 17.5156 74.5893 37.9995 74.5893Z" fill="#FDEAA8"/>
<path d="M40.6285 69.3378C20.1408 69.3378 3.53916 52.7301 3.53916 32.2485C3.53409 27.4898 4.44511 22.7746 6.2225 18.3604C2.73593 24.135 0.898624 30.7547 0.910211 37.5003C0.910211 57.9819 17.5179 74.5897 37.9996 74.5897C53.5738 74.5897 66.9059 64.9925 72.3995 51.3884C65.9087 62.146 54.1056 69.3378 40.6285 69.3378Z" fill="#F9CB8E"/>
<path d="M37.9996 0.410706C30.0528 0.396262 22.3139 2.94837 15.9346 7.68716C24.691 4.30808 34.3166 3.90666 43.324 6.54492C43.2465 6.64007 43.1796 6.74343 43.1246 6.85315C42.0246 8.90191 44.2668 12.238 48.1226 14.3049C51.9784 16.3718 56.0034 16.3959 57.1033 14.3532C57.2081 14.1536 57.2834 13.9398 57.3269 13.7186C67.3109 21.4544 73.7594 33.5476 73.8198 47.1456C74.6648 44.0001 75.0915 40.757 75.089 37.5001C75.089 17.0184 58.4812 0.410706 37.9996 0.410706Z" fill="#FBF3D1"/>
<path d="M27.922 20.171C28.0602 17.0065 26.5449 14.3701 24.5375 14.2824C22.53 14.1948 20.7907 16.6891 20.6525 19.8536C20.5143 23.0181 22.0297 25.6545 24.0371 25.7422C26.0445 25.8298 27.7839 23.3355 27.922 20.171Z" fill="#00305F"/>
<path d="M51.9857 25.7088C53.9931 25.6211 55.5084 22.9847 55.3703 19.8202C55.2321 16.6557 53.4928 14.1614 51.4853 14.249C49.4779 14.3367 47.9626 16.9731 48.1008 20.1376C48.2389 23.3021 49.9783 25.7964 51.9857 25.7088Z" fill="#00305F"/>
<path d="M49.1963 43.2338C48.9859 43.2337 48.782 43.1607 48.6193 43.0272C48.4565 42.8938 48.3449 42.708 48.3034 42.5015C47.8162 40.1483 46.5412 38.0321 44.6894 36.5032C42.8075 34.9482 40.4437 34.0977 38.0038 34.0977C35.5638 34.0977 33.2 34.9482 31.3181 36.5032C29.4663 38.0321 28.1913 40.1483 27.7041 42.5015C27.6858 42.6245 27.6426 42.7424 27.5773 42.8481C27.5119 42.9539 27.4257 43.0451 27.324 43.1164C27.2223 43.1877 27.1071 43.2375 26.9855 43.2627C26.8639 43.2879 26.7385 43.2881 26.6168 43.2632C26.4952 43.2383 26.3799 43.1889 26.2779 43.1179C26.176 43.0469 26.0896 42.9558 26.0239 42.8503C25.9583 42.7448 25.9148 42.6269 25.8961 42.504C25.8775 42.3811 25.884 42.2557 25.9153 42.1354C26.476 39.3895 27.9814 36.8876 30.1541 35.0905C31.796 33.7357 33.7599 32.8288 35.8551 32.4579C37.9502 32.0869 40.1056 32.2645 42.1121 32.9733C44.1185 33.6822 45.9079 34.8982 47.3067 36.5035C48.7054 38.1088 49.666 40.0489 50.0952 42.1354C50.1192 42.2532 50.1199 42.3746 50.097 42.4926C50.0742 42.6107 50.0284 42.723 49.9622 42.8233C49.8959 42.9236 49.8106 43.0099 49.7111 43.0772C49.6116 43.1444 49.4998 43.1914 49.3822 43.2155C49.3209 43.2274 49.2587 43.2336 49.1963 43.2338Z" fill="#00305F"/>
</svg>
