<svg width="88" height="84" viewBox="0 0 88 84" fill="none" xmlns="http://www.w3.org/2000/svg">
<path d="M26.9123 73.0162L26.9127 73.0165C28.2312 74.0964 31.1519 76.3944 34.4579 78.4176C36.1109 79.4292 37.8417 80.3606 39.5031 81.0369C41.176 81.7179 42.7141 82.1134 43.9997 82.1143L26.9123 73.0162ZM26.9123 73.0162C26.5826 72.7463 26.3092 72.4142 26.1078 72.0387C25.9064 71.6632 25.781 71.2517 25.7386 70.8278C25.6962 70.4038 25.7378 69.9756 25.8609 69.5677C25.984 69.1598 26.1862 68.7801 26.4561 68.4504C26.7259 68.1206 27.0581 67.8472 27.4335 67.6459C27.809 67.4445 28.2205 67.319 28.6445 67.2766C29.0685 67.2343 29.4966 67.2758 29.9045 67.3989C30.3021 67.5189 30.6729 67.7141 30.9968 67.9738C34.6335 71.392 38.9658 73.9843 43.6973 75.5733L43.8753 75.6331L44.0629 75.6242C44.949 75.5823 46.1565 75.1263 47.4851 74.4591C48.8581 73.7695 50.4981 72.782 52.2966 71.5401C55.8949 69.0554 60.178 65.5172 64.2923 61.2156C72.4883 52.6465 80.1796 40.872 80.1801 28.2352C80.1834 25.5654 79.8133 22.9083 79.0806 20.341L79.0788 20.3349C78.0705 16.8842 75.9706 13.8533 73.094 11.6969C70.2175 9.54046 66.7195 8.37465 63.1244 8.3743L63.107 8.37429L63.0896 8.3749C59.4527 8.50115 55.946 9.75971 53.0588 11.9749C50.1837 14.1809 48.0659 17.2259 46.998 20.6881C46.7551 21.2747 46.3452 21.7774 45.8189 22.1336C45.282 22.497 44.6485 22.6912 44.0001 22.6912C43.3517 22.6912 42.7182 22.497 42.1813 22.1336C41.655 21.7774 41.2451 21.2747 41.0022 20.6881C39.934 17.2261 37.8161 14.1812 34.9411 11.9753C32.054 9.76013 28.5475 8.50146 24.9107 8.3749L24.8933 8.37429L24.8758 8.3743C21.2809 8.3749 17.783 9.54051 14.9063 11.6964C12.0296 13.8524 9.92904 16.8825 8.91945 20.3327L8.91942 20.3327L8.91736 20.34C8.18683 22.908 7.81754 25.5653 7.82015 28.2352L7.82018 28.2683L7.8224 28.3013C8.52229 38.7195 12.644 48.6146 19.5466 56.4488C20.0776 57.1161 20.3246 57.9659 20.2335 58.8144C20.1417 59.6697 19.7139 60.4535 19.0442 60.9934C18.3745 61.5332 17.5178 61.7849 16.6625 61.6931C15.8072 61.6014 15.0234 61.1736 14.4836 60.5039L14.4714 60.4887L14.4586 60.4741C6.61198 51.4796 1.99217 40.1237 1.33105 28.2064C1.33089 24.9437 1.78437 21.6967 2.67849 18.5588C4.0791 13.7541 6.99884 9.53255 11.0003 6.52661C15.0022 3.52036 19.8705 1.89191 24.8758 1.88525C28.4596 1.89135 31.9903 2.75252 35.1745 4.39725C38.3591 6.04219 41.1052 8.4234 43.1845 11.343L43.9991 12.4867L44.8136 11.343C46.8932 8.42319 49.6396 6.04185 52.8246 4.39689C56.0092 2.75214 59.5403 1.89109 63.1245 1.88525M26.9123 73.0162L63.1245 1.88525M63.1245 1.88525C68.1293 1.89143 72.9973 3.51948 76.9989 6.52542C81.0002 9.53114 83.9197 13.7526 85.3198 18.5572C86.2184 21.7038 86.6726 24.9607 86.6692 28.2331V28.2342C86.6692 42.3314 78.4677 55.8149 68.8892 65.8345C64.1128 70.8308 59.0316 74.9251 54.5387 77.7631C52.292 79.1822 50.2063 80.2784 48.3912 81.0168C46.5599 81.7617 45.0722 82.1142 43.9998 82.1143L63.1245 1.88525Z" fill="#AB7433" stroke="white" stroke-width="2"/>
<path d="M50.0157 51.2551C49.5945 51.2556 49.1773 51.1728 48.7882 51.0115C48.399 50.8503 48.0456 50.6137 47.7482 50.3154L34.9189 37.4865C34.3264 36.8833 33.9962 36.0705 34 35.2251C34.0039 34.3796 34.3414 33.5698 34.9393 32.972C35.5372 32.3741 36.3469 32.0366 37.1925 32.0327C38.038 32.0289 38.8508 32.3591 39.454 32.9515L52.2833 45.7804C52.7317 46.2289 53.0371 46.8003 53.1608 47.4224C53.2845 48.0444 53.221 48.6892 52.9783 49.2751C52.7356 49.8611 52.3246 50.3619 51.7973 50.7144C51.27 51.0668 50.65 51.255 50.0157 51.2551Z" fill="#B81010"/>
<path d="M37.2066 51.2551C36.5724 51.255 35.9524 51.0668 35.4251 50.7144C34.8978 50.3619 34.4868 49.8611 34.2441 49.2751C34.0014 48.6892 33.9379 48.0444 34.0616 47.4224C34.1853 46.8003 34.4906 46.2289 34.9391 45.7804L47.7684 32.9515C48.3716 32.3591 49.1844 32.0289 50.0299 32.0327C50.8754 32.0366 51.6852 32.3741 52.2831 32.972C52.881 33.5698 53.2185 34.3796 53.2224 35.2251C53.2262 36.0705 52.896 36.8833 52.3035 37.4865L39.4742 50.3154C39.1768 50.6137 38.8234 50.8503 38.4342 51.0115C38.0451 51.1728 37.6279 51.2556 37.2066 51.2551Z" fill="#B81010"/>
</svg>
