<svg width="20" height="20" viewBox="0 0 20 20" fill="none" xmlns="http://www.w3.org/2000/svg">
<path d="M6.55661 6.51142C5.75176 7.1953 5.45682 8.44253 6.15178 9.44311C6.80211 10.3794 7.62131 11.1985 8.55742 11.8485C9.55804 12.5433 10.8052 12.2483 11.489 11.4434L11.4966 11.4469C12.3701 11.8516 13.2978 12.1289 14.25 12.2702V14.25L14.2492 14.25L14.2471 14.25C8.26614 14.2585 3.74361 9.68334 3.75001 3.75269V3.75H5.72953L5.72966 3.75088C5.871 4.70299 6.1482 5.6299 6.55285 6.50331L6.55661 6.51142ZM14.2492 15.75H15C15.4142 15.75 15.75 15.4142 15.75 15V11.6233C15.75 11.2516 15.4778 10.936 15.1101 10.8814L14.4695 10.7863C13.6592 10.6661 12.8704 10.4302 12.1271 10.0859L11.5625 9.82433C11.2353 9.67275 10.8465 9.7755 10.6369 10.0689L10.3813 10.4268C10.1573 10.7405 9.72958 10.8363 9.41298 10.6164C8.62376 10.0684 7.93205 9.37682 7.38377 8.58742C7.16386 8.27081 7.25967 7.84303 7.57338 7.619L7.93108 7.36355C8.22457 7.15396 8.32733 6.76516 8.17572 6.43793L7.91388 5.87275C7.56956 5.12955 7.33367 4.34081 7.2134 3.53062L7.11828 2.88987C7.0637 2.52222 6.74809 2.25 6.37641 2.25H3.00001C2.58579 2.25 2.25001 2.58579 2.25001 3V3.75107C2.24272 10.5059 7.43267 15.7597 14.2492 15.75Z" fill="#fff"/>
</svg>
