<svg width="20" height="20" viewBox="0 0 22 22" fill="none" xmlns="http://www.w3.org/2000/svg">
<path d="M19.3465 21.5086L12.2027 14.3636C9.02481 16.6229 4.64577 16.0702 2.12881 13.0922C-0.388145 10.1142 -0.203332 5.7043 2.55397 2.94731C5.31054 0.189119 9.72088 0.00350642 12.6995 2.52033C15.678 5.03715 16.231 9.41662 13.9715 12.5948L21.1152 19.7398L19.3477 21.5073L19.3465 21.5086ZM7.85647 3.24979C5.4861 3.24926 3.44108 4.91316 2.95956 7.2341C2.47804 9.55505 3.69236 11.8952 5.86732 12.8376C8.04227 13.7801 10.5801 13.0658 11.9443 11.1274C13.3085 9.1889 13.1241 6.55896 11.5027 4.82981L12.259 5.57981L11.4065 4.72981L11.3915 4.71481C10.4562 3.77378 9.18321 3.24622 7.85647 3.24979Z" fill="#393E46"/>
</svg>
