<svg width="24" height="24" viewBox="0 0 35 35" fill="none" xmlns="http://www.w3.org/2000/svg">
<path d="M27.2375 28.5935L18.9031 20.2577C15.1955 22.8935 10.0866 22.2488 7.1502 18.7744C4.21375 15.3001 4.42937 10.1552 7.64622 6.93869C10.8622 3.7208 16.0076 3.50425 19.4826 6.44055C22.9576 9.37684 23.6027 14.4862 20.9666 18.1941L29.301 26.5299L27.2389 28.592L27.2375 28.5935ZM13.8325 7.29159C11.067 7.29097 8.68118 9.23218 8.11941 11.94C7.55763 14.6477 8.97434 17.3778 11.5118 18.4774C14.0492 19.5769 17.01 18.7437 18.6016 16.4821C20.1931 14.2205 19.978 11.1523 18.0864 9.13494L18.9687 10.0099L17.9741 9.01828L17.9566 9.00078C16.8655 7.90291 15.3803 7.28742 13.8325 7.29159Z" fill="#101010"/>
</svg>
