<svg width="25" height="22" viewBox="0 0 20 20" fill="none" xmlns="http://www.w3.org/2000/svg">
<path d="M17.9547 5.60815C17.9547 6.12823 17.7872 6.63536 17.4756 7.0589C17.164 7.48245 16.7238 7.80133 16.2163 7.97113C15.7087 8.14093 15.1592 8.1532 14.6441 8.00623C14.129 7.85925 13.6741 7.56035 13.3427 7.15115L8.57481 9.46015C8.69247 9.88498 8.69247 10.3323 8.57481 10.7572L13.3427 13.0652C13.7378 12.578 14.3057 12.2502 14.9361 12.1455C15.5666 12.0408 16.2147 12.1666 16.7549 12.4984C17.295 12.8302 17.6888 13.3445 17.8597 13.9415C18.0306 14.5385 17.9666 15.1757 17.68 15.7296C17.3935 16.2835 16.9048 16.7146 16.3087 16.9393C15.7126 17.164 15.0516 17.1664 14.4538 16.9459C13.856 16.7254 13.3641 16.2978 13.0733 15.7459C12.7826 15.1941 12.7137 14.5574 12.8802 13.9592L8.11227 11.6512C7.78093 12.0605 7.32603 12.3595 6.81093 12.5066C6.29584 12.6537 5.7462 12.6415 5.23859 12.4718C4.73098 12.302 4.29068 11.9831 3.97902 11.5595C3.66736 11.136 3.49986 10.6288 3.49986 10.1087C3.49986 9.58852 3.66736 9.08134 3.97902 8.65776C4.29068 8.23418 4.73098 7.91531 5.23859 7.74555C5.7462 7.57579 6.29584 7.56361 6.81093 7.7107C7.32603 7.85779 7.78093 8.15683 8.11227 8.56615L12.8802 6.25615C12.7784 5.88572 12.7657 5.49761 12.8433 5.12171C12.9208 4.74581 13.0864 4.39216 13.3273 4.08803C13.5681 3.78389 13.8779 3.53738 14.2327 3.3675C14.5875 3.19761 14.9778 3.10888 15.3735 3.10815C16.0581 3.10815 16.7146 3.37155 17.1987 3.84039C17.6827 4.30923 17.9547 4.94511 17.9547 5.60815Z" fill="#fff"/>
</svg>
