<svg width="370" height="187" viewBox="0 0 397 187" fill="none" xmlns="http://www.w3.org/2000/svg">
<g clip-path="url(#clip0_1549_12370)">
<g filter="url(#filter0_d_1549_12370)">
<rect x="0.715332" y="0.302734" width="396.285" height="185.759" rx="12.3839" fill="url(#paint0_linear_1549_12370)"/>
</g>
<circle cx="86.1641" cy="30.0254" r="88.5449" stroke="url(#paint1_linear_1549_12370)" stroke-width="1.23839"/>
<path d="M151.18 0.303406C151.18 41.003 118.462 73.9876 78.1146 73.9876C37.7668 73.9876 5.04962 41.003 5.04962 0.303406C5.04962 -40.3962 37.7668 -73.3808 78.1146 -73.3808C118.462 -73.3808 151.18 -40.3962 151.18 0.303406Z" stroke="url(#paint2_linear_1549_12370)" stroke-width="1.23839"/>
<circle cx="288.022" cy="121.666" r="88.5449" stroke="url(#paint3_linear_1549_12370)" stroke-width="1.23839"/>
<circle cx="293.594" cy="137.145" r="73.065" stroke="url(#paint4_linear_1549_12370)" stroke-width="1.23839"/>
<path d="M73.161 32.502L74.1342 35.4969H77.2833L74.7356 37.3479L75.7087 40.3429L73.161 38.4919L70.6133 40.3429L71.5865 37.3479L69.0388 35.4969H72.1879L73.161 32.502Z" fill="#FFAB8C"/>
<path d="M92.9752 72.6152L94.5044 77.3216H99.453L95.4495 80.2303L96.9787 84.9367L92.9752 82.028L88.9717 84.9367L90.5009 80.2303L86.4974 77.3216H91.446L92.9752 72.6152Z" fill="#FFAB8C"/>
<path d="M92.9752 123.615L94.5044 128.322H99.453L95.4495 131.23L96.9787 135.937L92.9752 133.028L88.9717 135.937L90.5009 131.23L86.4974 128.322H91.446L92.9752 123.615Z" fill="#FFAB8C"/>
<path d="M50.8698 49.8379L51.8429 52.8329H54.992L52.4443 54.6839L53.4174 57.6788L50.8698 55.8278L48.3221 57.6788L49.2952 54.6839L46.7475 52.8329H49.8966L50.8698 49.8379Z" fill="#FFAB8C"/>
<path d="M59.3344 101.615L60.3075 104.61H63.4566L60.9089 106.461L61.882 109.456L59.3344 107.605L56.7867 109.456L57.7598 106.461L55.2121 104.61H58.3612L59.3344 101.615Z" fill="#FFAB8C"/>
<path d="M50.8698 77.084L51.8429 80.079H54.992L52.4443 81.93L53.4174 84.9249L50.8698 83.0739L48.3221 84.9249L49.2952 81.93L46.7475 80.079H49.8966L50.8698 77.084Z" fill="#FFAB8C"/>
<path d="M42.8204 90.7051L44.2105 94.9836H48.7093L45.0697 97.6279L46.4599 101.906L42.8204 99.2621L39.1808 101.906L40.571 97.6279L36.9315 94.9836H41.4302L42.8204 90.7051Z" fill="#FFAB8C"/>
<path d="M63.5 89.6152L64.2858 92.0337H66.8287L64.7714 93.5284L65.5572 95.9468L63.5 94.4521L61.4428 95.9468L62.2286 93.5284L60.1713 92.0337H62.7142L63.5 89.6152Z" fill="#FFAB8C"/>
<path d="M130.5 77.6152L131.286 80.0337H133.829L131.771 81.5284L132.557 83.9468L130.5 82.4521L128.443 83.9468L129.229 81.5284L127.171 80.0337H129.714L130.5 77.6152Z" fill="#FFAB8C"/>
<path d="M63.5 119.615L64.2858 122.034H66.8287L64.7714 123.528L65.5572 125.947L63.5 124.452L61.4428 125.947L62.2286 123.528L60.1713 122.034H62.7142L63.5 119.615Z" fill="#FFAB8C"/>
<path d="M78.1146 100.613L79.0878 103.608H82.2369L79.6892 105.459L80.6623 108.454L78.1146 106.603L75.567 108.454L76.5401 105.459L73.9924 103.608H77.1415L78.1146 100.613Z" fill="#FFAB8C"/>
<path d="M78.1146 67.6152L79.0878 70.6102H82.2369L79.6892 72.4612L80.6623 75.4562L78.1146 73.6052L75.567 75.4562L76.5401 72.4612L73.9924 70.6102H77.1415L78.1146 67.6152Z" fill="#FFAB8C"/>
<path d="M64.3344 67.6152L65.3075 70.6102H68.4566L65.9089 72.4612L66.882 75.4562L64.3344 73.6052L61.7867 75.4562L62.7598 72.4612L60.2121 70.6102H63.3612L64.3344 67.6152Z" fill="#FFAB8C"/>
<path d="M90.4984 91.9434L91.4716 94.9383H94.6207L92.073 96.7893L93.0461 99.7843L90.4984 97.9333L87.9508 99.7843L88.9239 96.7893L86.3762 94.9383H89.5253L90.4984 91.9434Z" fill="#FFAB8C"/>
<path d="M104.121 98.1367L105.094 101.132H108.243L105.695 102.983L106.668 105.978L104.121 104.127L101.573 105.978L102.546 102.983L99.9985 101.132H103.148L104.121 98.1367Z" fill="#FFAB8C"/>
<path d="M107.836 85.752L108.809 88.7469H111.958L109.41 90.5979L110.384 93.5929L107.836 91.7419L105.288 93.5929L106.261 90.5979L103.714 88.7469H106.863L107.836 85.752Z" fill="#FFAB8C"/>
<path d="M109.334 63.6152L110.307 66.6102H113.457L110.909 68.4612L111.882 71.4562L109.334 69.6052L106.787 71.4562L107.76 68.4612L105.212 66.6102H108.361L109.334 63.6152Z" fill="#FFAB8C"/>
<path d="M130.127 98.1367L131.1 101.132H134.249L131.701 102.983L132.675 105.978L130.127 104.127L127.579 105.978L128.552 102.983L126.005 101.132H129.154L130.127 98.1367Z" fill="#FFAB8C"/>
<path d="M117.743 105.566L118.716 108.561H121.865L119.317 110.412L120.29 113.407L117.743 111.556L115.195 113.407L116.168 110.412L113.621 108.561H116.77L117.743 105.566Z" fill="#FFAB8C"/>
<path d="M148.703 65.9375L149.676 68.9325H152.825L150.277 70.7835L151.25 73.7784L148.703 71.9274L146.155 73.7784L147.128 70.7835L144.581 68.9325H147.73L148.703 65.9375Z" fill="#FFAB8C"/>
<path d="M163.563 54.793L164.536 57.7879H167.686L165.138 59.6389L166.111 62.6339L163.563 60.7829L161.016 62.6339L161.989 59.6389L159.441 57.7879H162.59L163.563 54.793Z" fill="#FFAB8C"/>
<path d="M140.034 136.525L141.007 139.52H144.156L141.609 141.371L142.582 144.366L140.034 142.515L137.486 144.366L138.46 141.371L135.912 139.52H139.061L140.034 136.525Z" fill="#FFAB8C"/>
<path d="M109.074 37.4551L110.047 40.4501H113.197L110.649 42.301L111.622 45.296L109.074 43.445L106.527 45.296L107.5 42.301L104.952 40.4501H108.101L109.074 37.4551Z" fill="#FFAB8C"/>
<path d="M109.074 114.615L110.047 117.61H113.197L110.649 119.461L111.622 122.456L109.074 120.605L106.527 122.456L107.5 119.461L104.952 117.61H108.101L109.074 114.615Z" fill="#FFAB8C"/>
<path d="M109.074 145.195L110.047 148.19H113.197L110.649 150.041L111.622 153.036L109.074 151.185L106.527 153.036L107.5 150.041L104.952 148.19H108.101L109.074 145.195Z" fill="#FFAB8C"/>
<path d="M74.3993 145.195L75.3724 148.19H78.5215L75.9739 150.041L76.947 153.036L74.3993 151.185L71.8516 153.036L72.8248 150.041L70.2771 148.19H73.4262L74.3993 145.195Z" fill="#FFAB8C"/>
<path d="M137.557 26.3105L139.086 31.0169H144.035L140.032 33.9256L141.561 38.632L137.557 35.7233L133.554 38.632L135.083 33.9256L131.079 31.0169H136.028L137.557 26.3105Z" fill="#FFAB8C"/>
<path d="M31.6638 70.8233C30.9356 70.8233 30.2594 70.6961 29.6353 70.4419C29.0227 70.176 28.5257 69.7715 28.1443 69.2282C27.7744 68.685 27.5895 67.9973 27.5895 67.1651C27.5895 67.1073 27.5895 67.0437 27.5895 66.9744C27.601 66.8935 27.6068 66.8357 27.6068 66.801H29.6526C29.6526 66.8126 29.6469 66.8588 29.6353 66.9397C29.6353 67.009 29.6353 67.0668 29.6353 67.1131C29.6353 67.7372 29.8202 68.2227 30.1901 68.5694C30.5715 68.9162 31.0743 69.0895 31.6985 69.0895C32.4151 69.0895 32.9352 68.9335 33.2588 68.6214C33.5825 68.3094 33.7443 67.9337 33.7443 67.4945C33.7443 67.0784 33.6345 66.749 33.4149 66.5063C33.2068 66.252 32.9236 66.0439 32.5653 65.8821C32.2186 65.7087 31.8372 65.5585 31.4211 65.4313C31.005 65.3042 30.5831 65.1597 30.1554 64.9979C29.7278 64.8361 29.3406 64.628 28.9938 64.3737C28.6471 64.1079 28.3639 63.7727 28.1443 63.3682C27.9362 62.9521 27.8322 62.4262 27.8322 61.7905C27.8322 61.0507 28.0114 60.4381 28.3697 59.9527C28.728 59.4672 29.2019 59.1089 29.7913 58.8778C30.3924 58.635 31.0396 58.5137 31.7331 58.5137C32.4382 58.5137 33.0739 58.635 33.6402 58.8778C34.2182 59.1089 34.6805 59.4788 35.0272 59.9874C35.374 60.4959 35.5474 61.1548 35.5474 61.9638V62.1719H33.5189V61.9812C33.5189 61.4379 33.3571 61.0161 33.0334 60.7155C32.7098 60.4035 32.2764 60.2474 31.7331 60.2474C31.1668 60.2474 30.716 60.3746 30.3808 60.6289C30.0456 60.8716 29.878 61.2126 29.878 61.6518C29.878 62.0216 29.9878 62.3221 30.2074 62.5533C30.427 62.7729 30.7102 62.9579 31.057 63.1081C31.4037 63.2468 31.7851 63.3797 32.2012 63.5069C32.6289 63.634 33.0508 63.7785 33.4669 63.9403C33.8945 64.1021 34.2817 64.316 34.6285 64.5818C34.9752 64.8361 35.2526 65.1655 35.4607 65.57C35.6803 65.963 35.7901 66.4716 35.7901 67.0957C35.7901 67.9973 35.6109 68.7197 35.2526 69.2629C34.9059 69.8062 34.4204 70.2049 33.7963 70.4592C33.1721 70.7019 32.4613 70.8233 31.6638 70.8233ZM37.4697 70.6152V58.0802H39.3248V62.4666H39.3941C39.6022 62.1314 39.8853 61.854 40.2437 61.6344C40.6135 61.4033 41.047 61.2877 41.544 61.2877C42.249 61.2877 42.8212 61.5015 43.2604 61.9292C43.6996 62.3568 43.9192 63.1023 43.9192 64.1657V70.6152H42.0641V64.5645C42.0641 63.9634 41.9543 63.5473 41.7347 63.3162C41.5151 63.085 41.2146 62.9694 40.8331 62.9694C40.417 62.9694 40.0587 63.1601 39.7582 63.5415C39.4692 63.923 39.3248 64.4142 39.3248 65.0152V70.6152H37.4697ZM47.6004 70.8233C47.3924 70.8233 47.1497 70.7886 46.8723 70.7193C46.6064 70.6499 46.3521 70.5285 46.1094 70.3552C45.8667 70.1702 45.6644 69.9102 45.5026 69.575C45.3523 69.2398 45.2772 68.8006 45.2772 68.2573C45.2772 67.4251 45.4737 66.7837 45.8667 66.3329C46.2597 65.8821 46.7971 65.57 47.4791 65.3967C48.1726 65.2117 48.9585 65.1193 49.837 65.1193V64.079C49.837 63.7323 49.7618 63.4375 49.6116 63.1948C49.4729 62.9521 49.1724 62.8307 48.71 62.8307C48.2477 62.8307 47.9298 62.9521 47.7565 63.1948C47.5946 63.4375 47.5137 63.6918 47.5137 63.9576V64.2004H45.6933C45.6817 64.1426 45.676 64.0848 45.676 64.027C45.676 63.9692 45.676 63.8999 45.676 63.8189C45.676 63.033 45.9534 62.4146 46.5082 61.9638C47.063 61.5131 47.7969 61.2877 48.71 61.2877C49.7272 61.2877 50.4784 61.5188 50.9639 61.9812C51.4493 62.4435 51.6921 63.0908 51.6921 63.923V68.6388C51.6921 68.8584 51.7441 69.0144 51.8481 69.1069C51.9521 69.1993 52.0619 69.2456 52.1775 69.2456H52.6456V70.5459C52.5416 70.6037 52.3971 70.6615 52.2122 70.7193C52.0273 70.7771 51.7961 70.8059 51.5187 70.8059C51.1142 70.8059 50.779 70.6961 50.5131 70.4765C50.2473 70.2569 50.0623 69.9737 49.9583 69.627H49.8716C49.6289 69.9853 49.3284 70.2743 48.9701 70.4939C48.6233 70.7135 48.1668 70.8233 47.6004 70.8233ZM48.2766 69.2456C48.6002 69.2456 48.8776 69.1589 49.1088 68.9855C49.34 68.8006 49.5191 68.5521 49.6462 68.24C49.7734 67.9279 49.837 67.5696 49.837 67.1651V66.5409C49.3515 66.5409 48.9065 66.5872 48.502 66.6796C48.109 66.7605 47.7911 66.9166 47.5484 67.1477C47.3057 67.3673 47.1843 67.6852 47.1843 68.1013C47.1843 68.4827 47.271 68.7717 47.4444 68.9682C47.6293 69.1531 47.9067 69.2456 48.2766 69.2456ZM53.8082 70.6152V61.4957H55.3165L55.5419 62.7787H55.646C55.7615 62.4088 55.9349 62.0679 56.1661 61.7558C56.4088 61.4437 56.7556 61.2877 57.2063 61.2877C57.4491 61.2877 57.6398 61.3108 57.7785 61.357C57.9287 61.4033 58.0039 61.4264 58.0039 61.4264V63.2468H57.3624C57.0618 63.2468 56.7787 63.3162 56.5128 63.4549C56.2585 63.582 56.0505 63.7958 55.8887 64.0963C55.7384 64.3969 55.6633 64.8187 55.6633 65.362V70.6152H53.8082ZM62.1949 70.8233C61.0391 70.8233 60.1606 70.4419 59.5596 69.679C58.9701 68.9162 58.6754 67.7083 58.6754 66.0555C58.6754 64.4142 58.9701 63.2121 59.5596 62.4493C60.1606 61.6749 61.0217 61.2877 62.1429 61.2877C63.2063 61.2877 64.0038 61.6575 64.5355 62.3973C65.0787 63.1255 65.3503 64.2871 65.3503 65.8821V66.5409H60.5999C60.6114 67.4309 60.7386 68.1129 60.9813 68.5868C61.2356 69.0491 61.6459 69.2802 62.2122 69.2802C62.6052 69.2802 62.9173 69.1184 63.1485 68.7948C63.3912 68.4596 63.5126 68.0031 63.5126 67.4251H65.3503C65.3503 68.5463 65.0498 69.3958 64.4488 69.9737C63.8593 70.5401 63.108 70.8233 62.1949 70.8233ZM60.6172 65.1193H63.3912C63.3912 64.3911 63.2872 63.8305 63.0791 63.4375C62.8826 63.033 62.5706 62.8307 62.1429 62.8307C61.6459 62.8307 61.276 63.0272 61.0333 63.4202C60.8021 63.8132 60.6634 64.3795 60.6172 65.1193ZM71.8795 73.7707C71.5443 73.7707 71.2669 73.7475 71.0473 73.7013C70.8277 73.6666 70.6948 73.6377 70.6485 73.6146V72.2276H71.4287C71.7639 72.2276 72.0702 72.1063 72.3476 71.8635C72.6366 71.6208 72.8446 71.2047 72.9718 70.6152L70.0244 61.4957H72.0009L73.4399 66.1768C73.4861 66.3387 73.5323 66.5294 73.5786 66.749C73.6364 66.9686 73.6884 67.1882 73.7346 67.4078C73.7809 67.6274 73.8155 67.8181 73.8386 67.9799C73.8733 68.1418 73.8964 68.2458 73.908 68.292H73.9773C73.9889 68.2458 74.0062 68.1475 74.0294 67.9973C74.064 67.8355 74.0987 67.6505 74.1334 67.4425C74.1796 67.2229 74.2258 67.0033 74.2721 66.7837C74.3183 66.5525 74.3645 66.3502 74.4108 66.1768L75.5897 61.4957H77.4622L75.0176 70.1471C74.8327 70.8059 74.6015 71.407 74.3241 71.9502C74.0583 72.505 73.7288 72.9442 73.3359 73.2679C72.9429 73.6031 72.4574 73.7707 71.8795 73.7707ZM81.7693 70.8233C80.6135 70.8233 79.7408 70.4419 79.1514 69.679C78.5619 68.9046 78.2671 67.6968 78.2671 66.0555C78.2671 64.4142 78.5619 63.2121 79.1514 62.4493C79.7408 61.6749 80.6135 61.2877 81.7693 61.2877C82.9367 61.2877 83.8151 61.6749 84.4046 62.4493C84.9941 63.2121 85.2888 64.4142 85.2888 66.0555C85.2888 67.6968 84.9941 68.9046 84.4046 69.679C83.8151 70.4419 82.9367 70.8233 81.7693 70.8233ZM81.7693 69.2456C82.3241 69.2456 82.7229 69.0029 82.9656 68.5174C83.2199 68.032 83.347 67.3211 83.347 66.3849V65.7261C83.347 64.7898 83.2199 64.079 82.9656 63.5936C82.7229 63.1081 82.3241 62.8654 81.7693 62.8654C81.2145 62.8654 80.81 63.1081 80.5557 63.5936C80.313 64.079 80.1916 64.7898 80.1916 65.7261V66.3849C80.1916 67.3211 80.313 68.032 80.5557 68.5174C80.81 69.0029 81.2145 69.2456 81.7693 69.2456ZM89.3341 70.8233C88.6406 70.8233 88.0743 70.6095 87.6351 70.1818C87.1958 69.7541 86.9762 69.0086 86.9762 67.9453V61.4957H88.8313V67.5465C88.8313 68.1475 88.9354 68.5636 89.1434 68.7948C89.363 69.026 89.6635 69.1416 90.045 69.1416C90.4726 69.1416 90.8309 68.9566 91.1199 68.5868C91.4204 68.2169 91.5707 67.7257 91.5707 67.1131V61.4957H93.4258V70.6152H91.9174L91.7094 69.5056H91.6053C91.3742 69.8986 91.0679 70.2165 90.6865 70.4592C90.305 70.7019 89.8543 70.8233 89.3341 70.8233ZM95.4079 70.6152V61.4957H96.9163L97.1417 62.7787H97.2457C97.3613 62.4088 97.5347 62.0679 97.7658 61.7558C98.0086 61.4437 98.3553 61.2877 98.8061 61.2877C99.0488 61.2877 99.2395 61.3108 99.3782 61.357C99.5285 61.4033 99.6036 61.4264 99.6036 61.4264V63.2468H98.9621C98.6616 63.2468 98.3784 63.3162 98.1126 63.4549C97.8583 63.582 97.6502 63.7958 97.4884 64.0963C97.3382 64.3969 97.263 64.8187 97.263 65.362V70.6152H95.4079ZM104.706 70.6152V58.7217H111.658V60.4902H106.699V63.7843H110.982V65.5527H106.699V70.6152H104.706ZM115.731 70.8233C114.575 70.8233 113.697 70.4419 113.096 69.679C112.506 68.9162 112.212 67.7083 112.212 66.0555C112.212 64.4142 112.506 63.2121 113.096 62.4493C113.697 61.6749 114.558 61.2877 115.679 61.2877C116.742 61.2877 117.54 61.6575 118.072 62.3973C118.615 63.1255 118.887 64.2871 118.887 65.8821V66.5409H114.136C114.148 67.4309 114.275 68.1129 114.517 68.5868C114.772 69.0491 115.182 69.2802 115.748 69.2802C116.141 69.2802 116.453 69.1184 116.685 68.7948C116.927 68.4596 117.049 68.0031 117.049 67.4251H118.887C118.887 68.5463 118.586 69.3958 117.985 69.9737C117.395 70.5401 116.644 70.8233 115.731 70.8233ZM114.153 65.1193H116.927C116.927 64.3911 116.823 63.8305 116.615 63.4375C116.419 63.033 116.107 62.8307 115.679 62.8307C115.182 62.8307 114.812 63.0272 114.569 63.4202C114.338 63.8132 114.2 64.3795 114.153 65.1193ZM123.638 70.8233C122.482 70.8233 121.604 70.4419 121.003 69.679C120.413 68.9162 120.118 67.7083 120.118 66.0555C120.118 64.4142 120.413 63.2121 121.003 62.4493C121.604 61.6749 122.465 61.2877 123.586 61.2877C124.649 61.2877 125.447 61.6575 125.978 62.3973C126.522 63.1255 126.793 64.2871 126.793 65.8821V66.5409H122.043C122.054 67.4309 122.182 68.1129 122.424 68.5868C122.679 69.0491 123.089 69.2802 123.655 69.2802C124.048 69.2802 124.36 69.1184 124.591 68.7948C124.834 68.4596 124.956 68.0031 124.956 67.4251H126.793C126.793 68.5463 126.493 69.3958 125.892 69.9737C125.302 70.5401 124.551 70.8233 123.638 70.8233ZM122.06 65.1193H124.834C124.834 64.3911 124.73 63.8305 124.522 63.4375C124.326 63.033 124.014 62.8307 123.586 62.8307C123.089 62.8307 122.719 63.0272 122.476 63.4202C122.245 63.8132 122.106 64.3795 122.06 65.1193ZM131.025 70.8233C130.135 70.8233 129.43 70.4419 128.909 69.679C128.389 68.9162 128.129 67.7025 128.129 66.0381C128.129 64.9285 128.251 64.027 128.493 63.3335C128.736 62.6284 129.071 62.1141 129.499 61.7905C129.927 61.4553 130.4 61.2877 130.921 61.2877C131.371 61.2877 131.776 61.3859 132.134 61.5824C132.493 61.7789 132.753 62.0563 132.914 62.4146H133.001V58.0802H134.856V70.6152H133.348L133.14 69.5056H133.053C132.834 69.9449 132.545 70.2743 132.186 70.4939C131.839 70.7135 131.452 70.8233 131.025 70.8233ZM131.527 69.1416C132.048 69.1416 132.423 68.9104 132.654 68.4481C132.886 67.9742 133.001 67.2864 133.001 66.3849V65.7781C133.001 64.865 132.886 64.1715 132.654 63.6976C132.423 63.2121 132.048 62.9694 131.527 62.9694C131.019 62.9694 130.643 63.2006 130.4 63.6629C130.169 64.1137 130.054 64.8014 130.054 65.7261V66.3849C130.054 67.3096 130.169 68.0031 130.4 68.4654C130.643 68.9162 131.019 69.1416 131.527 69.1416ZM141.821 70.8233C141.394 70.8233 141.001 70.7135 140.642 70.4939C140.296 70.2743 140.007 69.9449 139.775 69.5056H139.689L139.498 70.6152H137.99V58.0802H139.845V62.4146H139.931C140.093 62.0563 140.353 61.7789 140.712 61.5824C141.07 61.3859 141.475 61.2877 141.925 61.2877C142.457 61.2877 142.931 61.4553 143.347 61.7905C143.763 62.1141 144.092 62.6284 144.335 63.3335C144.589 64.027 144.717 64.9285 144.717 66.0381C144.717 67.7025 144.457 68.9162 143.936 69.679C143.416 70.4419 142.711 70.8233 141.821 70.8233ZM141.301 69.1416C141.833 69.1416 142.208 68.9162 142.428 68.4654C142.659 68.0031 142.775 67.3096 142.775 66.3849V65.7261C142.775 64.8014 142.659 64.1137 142.428 63.6629C142.208 63.2006 141.833 62.9694 141.301 62.9694C140.793 62.9694 140.423 63.2121 140.192 63.6976C139.96 64.1715 139.845 64.865 139.845 65.7781V66.3849C139.845 67.2864 139.96 67.9742 140.192 68.4481C140.423 68.9104 140.793 69.1416 141.301 69.1416ZM148.12 70.8233C147.912 70.8233 147.67 70.7886 147.392 70.7193C147.126 70.6499 146.872 70.5285 146.629 70.3552C146.387 70.1702 146.184 69.9102 146.023 69.575C145.872 69.2398 145.797 68.8006 145.797 68.2573C145.797 67.4251 145.994 66.7837 146.387 66.3329C146.78 65.8821 147.317 65.57 147.999 65.3967C148.693 65.2117 149.479 65.1193 150.357 65.1193V64.079C150.357 63.7323 150.282 63.4375 150.132 63.1948C149.993 62.9521 149.692 62.8307 149.23 62.8307C148.768 62.8307 148.45 62.9521 148.276 63.1948C148.115 63.4375 148.034 63.6918 148.034 63.9576V64.2004H146.213C146.202 64.1426 146.196 64.0848 146.196 64.027C146.196 63.9692 146.196 63.8999 146.196 63.8189C146.196 63.033 146.473 62.4146 147.028 61.9638C147.583 61.5131 148.317 61.2877 149.23 61.2877C150.247 61.2877 150.998 61.5188 151.484 61.9812C151.969 62.4435 152.212 63.0908 152.212 63.923V68.6388C152.212 68.8584 152.264 69.0144 152.368 69.1069C152.472 69.1993 152.582 69.2456 152.698 69.2456H153.166V70.5459C153.062 70.6037 152.917 70.6615 152.732 70.7193C152.547 70.7771 152.316 70.8059 152.039 70.8059C151.634 70.8059 151.299 70.6961 151.033 70.4765C150.767 70.2569 150.582 69.9737 150.478 69.627H150.392C150.149 69.9853 149.848 70.2743 149.49 70.4939C149.143 70.7135 148.687 70.8233 148.12 70.8233ZM148.797 69.2456C149.12 69.2456 149.398 69.1589 149.629 68.9855C149.86 68.8006 150.039 68.5521 150.166 68.24C150.293 67.9279 150.357 67.5696 150.357 67.1651V66.5409C149.872 66.5409 149.427 66.5872 149.022 66.6796C148.629 66.7605 148.311 66.9166 148.068 67.1477C147.826 67.3673 147.704 67.6852 147.704 68.1013C147.704 68.4827 147.791 68.7717 147.964 68.9682C148.149 69.1531 148.427 69.2456 148.797 69.2456ZM157.362 70.8233C156.206 70.8233 155.357 70.4419 154.814 69.679C154.282 68.9046 154.016 67.6968 154.016 66.0555C154.016 64.4142 154.288 63.2121 154.831 62.4493C155.386 61.6749 156.212 61.2877 157.31 61.2877C158.293 61.2877 159.044 61.5824 159.564 62.1719C160.096 62.7614 160.362 63.6745 160.362 64.9112H158.455C158.455 64.2177 158.368 63.7034 158.194 63.3682C158.021 63.033 157.726 62.8654 157.31 62.8654C156.825 62.8654 156.478 63.1081 156.27 63.5936C156.062 64.079 155.958 64.7898 155.958 65.7261V66.3849C155.958 67.3211 156.068 68.032 156.287 68.5174C156.507 69.0029 156.865 69.2456 157.362 69.2456C157.778 69.2456 158.073 69.0722 158.246 68.7255C158.431 68.3787 158.524 67.8701 158.524 67.1998H160.362C160.362 67.9742 160.246 68.633 160.015 69.1762C159.784 69.7079 159.443 70.1182 158.992 70.4072C158.553 70.6846 158.01 70.8233 157.362 70.8233ZM161.947 70.6152V58.0802H163.802V65.3273L166.489 61.4957H168.483L165.796 65.2233L168.622 70.6152H166.559L164.634 66.697L163.802 67.6852V70.6152H161.947ZM34.6285 87.6152L29.8954 81.131C29.5833 80.7265 29.3463 80.293 29.1845 79.8307C29.0227 79.3684 28.9418 78.9176 28.9418 78.4784C28.9418 77.9352 29.0574 77.4439 29.2885 77.0047C29.5313 76.5539 29.878 76.1956 30.3288 75.9298C30.7911 75.6524 31.3517 75.5137 32.0105 75.5137C32.6116 75.5137 33.1086 75.6293 33.5015 75.8604C33.8945 76.08 34.1835 76.3806 34.3684 76.762C34.5649 77.1318 34.6632 77.5422 34.6632 77.9929C34.6632 78.4784 34.5476 78.9754 34.3164 79.484C34.0968 79.9925 33.7674 80.4549 33.3282 80.871C32.9005 81.2871 32.3688 81.6107 31.7331 81.8419L31.109 80.2295C31.4211 80.1717 31.6985 80.033 31.9412 79.8134C32.1839 79.5822 32.3688 79.3164 32.496 79.0159C32.6347 78.7038 32.704 78.409 32.704 78.1316C32.704 77.8889 32.6405 77.6866 32.5133 77.5248C32.3862 77.3515 32.1839 77.2648 31.9065 77.2648C31.5829 77.2648 31.3401 77.3804 31.1783 77.6115C31.0281 77.8311 30.9529 78.1027 30.9529 78.4264C30.9529 78.7731 31.0281 79.1546 31.1783 79.5707C31.3286 79.9752 31.5482 80.293 31.8372 80.5242L36.9344 87.6152H34.6285ZM31.265 87.8406C30.4675 87.8406 29.8029 87.6846 29.2712 87.3725C28.7395 87.0489 28.3408 86.6328 28.0749 86.1242C27.8206 85.6041 27.6935 85.0551 27.6935 84.4772C27.6935 83.9455 27.7975 83.4196 28.0056 82.8994C28.2252 82.3678 28.543 81.8823 28.9591 81.4431C29.3868 81.0039 29.9127 80.6571 30.5368 80.4029L31.2303 82.0326C30.768 82.1597 30.4097 82.4429 30.1554 82.8821C29.9011 83.3213 29.774 83.7837 29.774 84.2691C29.774 84.7314 29.9011 85.1475 30.1554 85.5174C30.4213 85.8873 30.8316 86.0722 31.3864 86.0722C31.9296 86.0722 32.4266 85.9104 32.8774 85.5868C33.3397 85.2631 33.7096 84.7603 33.987 84.0784C34.276 83.3849 34.4204 82.4949 34.4204 81.4084H36.3276C36.3276 82.5065 36.1773 83.46 35.8768 84.2691C35.5878 85.0782 35.2006 85.7486 34.7152 86.2802C34.2297 86.8004 33.6865 87.1934 33.0854 87.4592C32.4844 87.7135 31.8776 87.8406 31.265 87.8406ZM37.0698 94.8323C38.6522 94.8323 40.0747 95.072 41.3374 95.5515C42.6002 96.0311 43.5991 96.7423 44.3344 97.6854C45.0856 98.6124 45.4613 99.7473 45.4613 101.09H40.4024C40.4024 100.403 40.0987 99.8512 39.4913 99.4356C38.8839 99.004 38.1487 98.7883 37.2856 98.7883C36.0388 98.7883 35.0958 99.1239 34.4564 99.7952C33.8171 100.451 33.4974 101.386 33.4974 102.6V104.135C33.4974 105.35 33.8171 106.293 34.4564 106.964C35.0958 107.619 36.0388 107.947 37.2856 107.947C38.1487 107.947 38.8839 107.747 39.4913 107.348C40.0987 106.932 40.4024 106.405 40.4024 105.765H36.6622V102.409H45.4613V111.615H42.728L42.2006 109.985C40.6981 111.264 38.7321 111.903 36.3026 111.903C33.5693 111.903 31.5154 111.192 30.1408 109.769C28.7662 108.331 28.0789 106.197 28.0789 103.368C28.0789 100.57 28.8541 98.4526 30.4045 97.0141C31.971 95.5595 34.1927 94.8323 37.0698 94.8323ZM54.9558 98.6684C57.2734 98.6684 59.0397 99.2118 60.2544 100.299C61.4852 101.386 62.1005 103.048 62.1005 105.286V106.101H52.6062C52.6062 107.012 52.806 107.699 53.2056 108.163C53.6212 108.626 54.2685 108.858 55.1476 108.858C55.9468 108.858 56.5302 108.69 56.8978 108.355C57.2814 108.019 57.4732 107.571 57.4732 107.012H62.1005C62.1005 108.546 61.5171 109.745 60.3503 110.608C59.1835 111.471 57.4812 111.903 55.2435 111.903C52.8939 111.903 51.0717 111.359 49.7771 110.273C48.4824 109.17 47.835 107.507 47.835 105.286C47.835 103.112 48.4664 101.466 49.7291 100.347C50.9918 99.2278 52.7341 98.6684 54.9558 98.6684ZM55.1476 101.713C53.6451 101.713 52.806 102.425 52.6302 103.847H57.2814C57.2814 103.192 57.0896 102.672 56.706 102.289C56.3384 101.905 55.8189 101.713 55.1476 101.713ZM72.8415 98.9561V102.193H70.1562V107.012C70.1562 107.587 70.2521 108.011 70.4439 108.283C70.6357 108.538 70.9873 108.666 71.4988 108.666H72.8415V111.471C72.4578 111.599 71.9623 111.703 71.355 111.783C70.7476 111.863 70.2201 111.903 69.7726 111.903C68.366 111.903 67.2791 111.647 66.5119 111.136C65.7606 110.624 65.385 109.753 65.385 108.522V102.193H63.6108V98.9561H65.5768L66.6078 95.12H70.1562V98.9561H72.8415ZM83.375 95.12H97.6405V99.076H88.6736V101.354H96.3458V105.142H88.6736V107.659H97.8084V111.615H83.375V95.12ZM117.557 111.615H111.131L108.086 106.484H107.99L104.945 111.615H98.9995L104.897 102.888L99.5749 95.12H105.976L108.47 99.3397H108.566L111.083 95.12H117.005L111.659 102.912L117.557 111.615ZM126.383 94.8323C128.829 94.8323 130.763 95.4477 132.185 96.6784C133.608 97.8932 134.319 99.6354 134.319 101.905H129.26C129.26 100.946 129.004 100.187 128.493 99.6274C127.997 99.068 127.286 98.7883 126.359 98.7883C125.288 98.7883 124.497 99.1239 123.985 99.7952C123.49 100.467 123.242 101.402 123.242 102.6V104.135C123.242 105.318 123.49 106.253 123.985 106.94C124.497 107.611 125.272 107.947 126.311 107.947C127.334 107.947 128.109 107.683 128.637 107.156C129.164 106.628 129.428 105.885 129.428 104.926H134.319C134.319 107.18 133.624 108.906 132.233 110.105C130.858 111.304 128.908 111.903 126.383 111.903C123.57 111.903 121.436 111.184 119.982 109.745C118.543 108.307 117.824 106.181 117.824 103.368C117.824 100.554 118.543 98.4286 119.982 96.9901C121.436 95.5515 123.57 94.8323 126.383 94.8323ZM137.42 111.615V95.12H142.718V111.615H137.42ZM155.993 99.3397V111.615H150.694V99.3397H145.276V95.12H161.387V99.3397H155.993ZM164.041 111.615V95.12H169.34V111.615H164.041ZM184.916 111.615L177.987 103.607V111.615H173.12V95.12H177.747L184.676 103.248V95.12H189.543V111.615H184.916ZM201.387 94.8323C202.97 94.8323 204.392 95.072 205.655 95.5515C206.918 96.0311 207.917 96.7423 208.652 97.6854C209.403 98.6124 209.779 99.7473 209.779 101.09H204.72C204.72 100.403 204.416 99.8512 203.809 99.4356C203.201 99.004 202.466 98.7883 201.603 98.7883C200.356 98.7883 199.413 99.1239 198.774 99.7952C198.135 100.451 197.815 101.386 197.815 102.6V104.135C197.815 105.35 198.135 106.293 198.774 106.964C199.413 107.619 200.356 107.947 201.603 107.947C202.466 107.947 203.201 107.747 203.809 107.348C204.416 106.932 204.72 106.405 204.72 105.765H200.98V102.409H209.779V111.615H207.046L206.518 109.985C205.016 111.264 203.05 111.903 200.62 111.903C197.887 111.903 195.833 111.192 194.458 109.769C193.084 108.331 192.396 106.197 192.396 103.368C192.396 100.57 193.172 98.4526 194.722 97.0141C196.288 95.5595 198.51 94.8323 201.387 94.8323ZM44.4303 124.179C44.4303 125.186 44.1586 126.097 43.6151 126.912C43.0717 127.727 42.2805 128.327 41.2415 128.71L44.9098 135.615H38.9639L36.0388 129.597H34.0728V135.615H28.7742V119.12H38.8679C40.0507 119.12 41.0577 119.352 41.8889 119.815C42.736 120.263 43.3674 120.878 43.783 121.661C44.2145 122.429 44.4303 123.268 44.4303 124.179ZM39.0358 124.395C39.0358 123.963 38.8919 123.603 38.6042 123.316C38.3165 123.028 37.9649 122.884 37.5493 122.884H34.0728V125.929H37.5493C37.9649 125.929 38.3165 125.785 38.6042 125.498C38.8919 125.194 39.0358 124.826 39.0358 124.395ZM47.4349 119.12H61.7005V123.076H52.7336V125.354H60.4058V129.142H52.7336V131.659H61.8683V135.615H47.4349V119.12ZM77.1331 135.615L74.9993 125.569H74.9034L72.7695 135.615H66.9434L63.0834 119.12H68.5978L70.4918 128.47H70.5877L72.4578 119.12H77.6845L79.6745 128.47H79.7704L81.5446 119.12H86.8193L82.9592 135.615H77.1331ZM99.7661 135.615L99.0708 133.29H93.2927L92.5974 135.615H87.1789L93.1968 119.12H99.3585L105.376 135.615H99.7661ZM94.3956 129.597H97.9679L96.2417 123.723H96.1458L94.3956 129.597ZM123.03 124.179C123.03 125.186 122.758 126.097 122.215 126.912C121.672 127.727 120.88 128.327 119.841 128.71L123.51 135.615H117.564L114.639 129.597H112.673V135.615H107.374V119.12H117.468C118.651 119.12 119.658 119.352 120.489 119.815C121.336 120.263 121.967 120.878 122.383 121.661C122.814 122.429 123.03 123.268 123.03 124.179ZM117.636 124.395C117.636 123.963 117.492 123.603 117.204 123.316C116.916 123.028 116.565 122.884 116.149 122.884H112.673V125.929H116.149C116.565 125.929 116.916 125.785 117.204 125.498C117.492 125.194 117.636 124.826 117.636 124.395ZM133.18 119.12C138.95 119.12 141.835 121.869 141.835 127.368C141.835 132.866 138.95 135.615 133.18 135.615H126.035V119.12H133.18ZM131.333 131.659H133.084C135.305 131.659 136.416 130.468 136.416 128.087V126.648C136.416 124.267 135.305 123.076 133.084 123.076H131.333V131.659ZM151.625 118.832C153.734 118.832 155.469 119.264 156.827 120.127C158.186 120.974 158.881 122.237 158.913 123.915V124.203H153.95V124.107C153.95 123.627 153.774 123.228 153.423 122.908C153.071 122.588 152.536 122.429 151.816 122.429C151.113 122.429 150.57 122.533 150.186 122.74C149.818 122.948 149.635 123.204 149.635 123.508C149.635 123.939 149.89 124.259 150.402 124.467C150.913 124.674 151.736 124.89 152.871 125.114C154.198 125.386 155.285 125.673 156.132 125.977C156.995 126.265 157.746 126.744 158.386 127.416C159.025 128.087 159.353 128.998 159.369 130.149C159.369 132.099 158.705 133.545 157.379 134.488C156.068 135.431 154.31 135.903 152.104 135.903C149.531 135.903 147.525 135.471 146.086 134.608C144.664 133.745 143.952 132.219 143.952 130.029H148.963C148.963 130.86 149.179 131.419 149.611 131.707C150.042 131.979 150.713 132.115 151.625 132.115C152.296 132.115 152.847 132.043 153.279 131.899C153.726 131.755 153.95 131.459 153.95 131.012C153.95 130.612 153.702 130.317 153.207 130.125C152.727 129.917 151.936 129.701 150.833 129.477C149.491 129.19 148.38 128.894 147.501 128.59C146.622 128.271 145.854 127.751 145.199 127.032C144.544 126.313 144.216 125.338 144.216 124.107C144.216 122.301 144.911 120.974 146.302 120.127C147.708 119.264 149.483 118.832 151.625 118.832ZM162.67 129.717L161.351 119.12H167.081L165.715 129.717H162.67ZM161.83 135.615V131.18H166.578V135.615H161.83ZM170.654 129.717L169.335 119.12H175.065L173.699 129.717H170.654ZM169.815 135.615V131.18H174.562V135.615H169.815ZM178.638 129.717L177.319 119.12H183.049L181.683 129.717H178.638ZM177.799 135.615V131.18H182.546V135.615H177.799Z" fill="white"/>
</g>
<defs>
<filter id="filter0_d_1549_12370" x="-11.6686" y="0.302734" width="421.053" height="210.526" filterUnits="userSpaceOnUse" color-interpolation-filters="sRGB">
<feFlood flood-opacity="0" result="BackgroundImageFix"/>
<feColorMatrix in="SourceAlpha" type="matrix" values="0 0 0 0 0 0 0 0 0 0 0 0 0 0 0 0 0 0 127 0" result="hardAlpha"/>
<feOffset dy="12.3839"/>
<feGaussianBlur stdDeviation="6.19195"/>
<feComposite in2="hardAlpha" operator="out"/>
<feColorMatrix type="matrix" values="0 0 0 0 0.882353 0 0 0 0 0.882353 0 0 0 0 0.882353 0 0 0 1 0"/>
<feBlend mode="normal" in2="BackgroundImageFix" result="effect1_dropShadow_1549_12370"/>
<feBlend mode="normal" in="SourceGraphic" in2="effect1_dropShadow_1549_12370" result="shape"/>
</filter>
<linearGradient id="paint0_linear_1549_12370" x1="0.715332" y1="0.302734" x2="385.855" y2="194.73" gradientUnits="userSpaceOnUse">
<stop stop-color="#DB9687"/>
<stop offset="0.482292" stop-color="#DB9687"/>
<stop offset="0.669792" stop-color="#DB9687"/>
<stop offset="1" stop-color="#DB9687"/>
</linearGradient>
<linearGradient id="paint1_linear_1549_12370" x1="86.1641" y1="-59.1387" x2="86.1641" y2="119.189" gradientUnits="userSpaceOnUse">
<stop stop-color="#FEF1F1"/>
<stop offset="1" stop-color="white" stop-opacity="0.04"/>
</linearGradient>
<linearGradient id="paint2_linear_1549_12370" x1="78.1146" y1="-74" x2="78.1146" y2="74.6068" gradientUnits="userSpaceOnUse">
<stop stop-color="#FEF1F1"/>
<stop offset="1" stop-color="white" stop-opacity="0.04"/>
</linearGradient>
<linearGradient id="paint3_linear_1549_12370" x1="288.022" y1="32.502" x2="288.022" y2="210.83" gradientUnits="userSpaceOnUse">
<stop stop-color="#FFB8A3" stop-opacity="0.4"/>
<stop offset="1" stop-color="white" stop-opacity="0.04"/>
</linearGradient>
<linearGradient id="paint4_linear_1549_12370" x1="293.594" y1="63.4609" x2="293.594" y2="210.829" gradientUnits="userSpaceOnUse">
<stop stop-color="#FFB8A3" stop-opacity="0.4"/>
<stop offset="1" stop-color="white" stop-opacity="0.04"/>
</linearGradient>
<clipPath id="clip0_1549_12370">
<rect width="396.285" height="185.759" fill="white" transform="translate(0.715332 0.302734)"/>
</clipPath>
</defs>
</svg>
