<svg width="174" height="61" viewBox="0 0 174 61" fill="none" xmlns="http://www.w3.org/2000/svg">
<path d="M110.937 50.2084C107.723 50.2084 104.997 49.1006 102.759 46.885C100.522 44.6693 99.4039 41.9818 99.4063 38.8224V1.79688H106.54V38.7462C106.531 39.292 106.636 39.8337 106.848 40.337C107.061 40.8402 107.376 41.294 107.774 41.6694C108.162 42.0584 108.625 42.3655 109.135 42.5721C109.645 42.7788 110.192 42.8807 110.742 42.8719C111.292 42.8829 111.837 42.7818 112.346 42.575C112.855 42.3682 113.316 42.06 113.7 41.6694C114.094 41.2913 114.405 40.8367 114.614 40.3338C114.824 39.831 114.927 39.2906 114.918 38.7462V1.79688H122.515V38.8224C122.515 42.0315 121.384 44.7317 119.122 46.9231C116.86 49.1144 114.132 50.2095 110.937 50.2084Z" fill="black"/>
<path d="M98.4285 47.5449C100.807 47.5449 102.768 49.2292 103.078 51.4402C103.187 52.2945 103.054 53.1622 102.695 53.9457C102.132 55.1979 101.372 56.353 100.445 57.3679C99.9231 57.9623 99.3663 58.5202 98.8182 59.0868C98.6164 59.2965 98.4598 59.2895 98.251 59.0868C96.9808 57.9103 95.8743 56.5699 94.9607 55.1015C94.5111 54.4054 94.1938 53.6331 94.0245 52.8229C93.9028 52.1925 93.9251 51.5429 94.0899 50.9223C94.2547 50.3017 94.5576 49.7259 94.9763 49.2378C95.3888 48.7174 95.9128 48.2954 96.5101 48.0025C97.1074 47.7096 97.7628 47.5533 98.4285 47.5449ZM96.4223 51.0988C96.4212 51.5074 96.5418 51.9071 96.7687 52.2474C96.9957 52.5878 97.3188 52.8535 97.6973 53.0111C98.0758 53.1687 98.4927 53.2111 98.8954 53.1329C99.298 53.0547 99.6684 52.8595 99.9597 52.5718C100.251 52.2841 100.45 51.9169 100.532 51.5166C100.614 51.1163 100.575 50.7007 100.42 50.3225C100.265 49.9443 100.001 49.6203 99.6607 49.3915C99.3208 49.1626 98.9205 49.0392 98.5103 49.0368C98.237 49.035 97.9661 49.087 97.7131 49.1897C97.46 49.2925 97.2299 49.444 97.0359 49.6356C96.8419 49.8272 96.6878 50.0551 96.5824 50.3062C96.4771 50.5573 96.4227 50.8267 96.4223 51.0988Z" fill="#AC040D"/>
<path d="M76.8475 29.3841V49.6747H69.5586V1.79688H76.8475V22.1256H85.6414V1.79688H92.9285V49.6747H85.6414V29.3841H76.8475Z" fill="black"/>
<path d="M128.984 49.6748V1.75885H139.896C142.659 1.72522 145.37 2.50919 147.686 4.01144C149.665 5.28212 151.079 7.25631 151.928 9.934C152.392 11.3618 152.624 13.0559 152.624 15.0162C152.624 18.2252 151.763 20.7978 150.04 22.7339C149.339 23.5351 148.471 24.1739 147.496 24.6053C149.12 25.2163 150.495 26.4264 151.622 28.2354C152.368 29.4576 152.92 31.0367 153.28 32.9727C153.469 34.071 153.56 35.1837 153.551 36.2979C153.551 39.3291 152.971 41.9016 151.811 44.0156C150.925 45.6622 149.607 47.0384 147.997 47.9975C146.141 49.118 144.303 49.6788 142.483 49.68L128.984 49.6748ZM136.853 21.3217H139.896C142.158 21.3217 143.675 20.2243 144.446 18.0294C144.752 17.0532 144.896 16.0335 144.871 15.011C144.871 13.0241 144.382 11.5224 143.404 10.5058C142.505 9.56319 141.335 9.09188 139.896 9.09188H136.853V21.3217ZM136.853 42.5289H139.896C142.363 42.5289 144.072 41.268 145.024 38.7463C145.374 37.792 145.544 36.7817 145.527 35.7659C145.527 33.0906 145.012 31.1418 143.983 29.9196C143.055 28.798 141.693 28.2377 139.896 28.2389H136.853V42.5289Z" fill="black"/>
<path d="M10.5565 38.67L8.78519 49.6747H1.19531L9.40985 1.79688H19.4375L27.5354 49.6747H19.8794L18.1742 38.67H10.5565ZM14.3845 12.7635L11.6858 31.6384H17.0798L14.3845 12.7635Z" fill="black"/>
<path d="M53.5271 49.6747H33.665V1.79688H40.9539V42.4907H53.5271V49.6747Z" fill="black"/>
<path d="M172.464 10.9162C172.3 10.6351 172.079 10.3916 171.814 10.202C171.549 10.0123 171.247 9.88073 170.927 9.81591C170.69 9.77153 170.448 9.76393 170.209 9.79338C169.052 9.95184 167.881 9.98785 166.717 9.90081C165.286 9.76393 163.531 9.50921 161.497 9.15226L161.437 9.14013L161.384 9.12454C161.287 9.09584 161.189 9.0727 161.089 9.05523C159.861 8.81957 156.853 8.73467 155.487 13.0562C155.009 14.6056 154.847 16.2345 155.01 17.8472C155.198 19.8607 155.826 22.4928 157.742 23.5913L159.036 24.333L157.743 25.0728C157.608 25.1473 154.464 26.9148 151.377 26.3239C149.811 26.0224 147.707 24.9845 146.587 21.739C146.541 21.5955 146.483 21.4563 146.413 21.3232C146.135 20.8352 145.753 20.4135 145.294 20.0876C144.836 19.7617 144.311 19.5394 143.757 19.4362C142.809 19.2541 141.826 19.4138 140.986 19.8867C136.618 22.3403 125.402 28.4621 115.618 32.3262C114.717 32.6831 113.669 33.1024 112.66 33.5789C110.038 34.8179 101.884 37.4777 82.8469 35.381C82.4815 35.3412 82.1039 35.3048 81.7333 35.277C80.5177 35.1717 79.3086 35.0034 78.1106 34.7728C72.8819 33.7695 64.1349 30.8412 64.3002 22.5188C64.3959 17.7485 67.7089 13.4356 72.5478 11.7878C76.8978 10.3097 84.7644 9.06909 97.6195 11.5383C99.5196 11.9021 101.493 12.3405 103.525 12.8517L102.709 12.3319C102.665 12.3111 98.185 9.88868 91.6652 8.63763C83.4211 7.05216 75.7703 7.94453 68.9321 11.2905L68.8712 11.3182L68.8155 11.3355C68.6276 11.3996 64.215 12.9158 62.7133 19.5575C61.1473 26.518 64.3994 33.896 70.8235 37.9143C74.4496 40.1825 78.69 41.7939 83.4263 42.7019C84.4703 42.9046 85.5561 43.0745 86.6453 43.2062C92.2011 43.8785 98.0319 43.5007 103.972 42.0885C112.752 39.985 129.641 34.8629 143.863 24.0713L144.084 23.898H144.365C144.468 23.8974 144.571 23.9073 144.673 23.9275C145.543 24.1008 147.293 25.0209 149.197 29.3181C149.438 29.8827 149.812 30.3817 150.287 30.7735C150.761 31.1653 151.323 31.4386 151.925 31.5707C152.115 31.6075 152.309 31.6272 152.503 31.6296C155.024 31.6694 157.794 30.0562 160.548 26.9217C165.539 21.9262 171.082 16.189 171.521 15.4058L171.583 15.3001L171.646 15.2273C171.646 15.2273 172.104 14.6728 172.69 12.8534C172.794 12.5333 172.828 12.1946 172.789 11.8602C172.75 11.5259 172.639 11.2039 172.464 10.9162ZM160.359 21.9695C160.566 21.4496 158.949 20.0808 158.949 20.0808C156.938 18.0205 158.892 15.8476 158.892 15.8476C160.889 12.1725 166.722 14.3384 166.722 14.3384C163.94 20.6994 160.359 21.9695 160.359 21.9695Z" fill="#808080"/>
<path d="M114.909 30.7682C114.909 30.7682 115.332 39.2171 114.359 40.8182H122.349C122.349 40.8182 122.854 33.849 122.506 29.1221H114.909V30.7682Z" fill="black"/>
<path d="M92.9295 29.3838H85.6406V49.6726H92.9295V29.3838Z" fill="black"/>
<path d="M76.8475 1.79688H69.5586V22.0788H76.8475V1.79688Z" fill="black"/>
</svg>
