<svg width="14" height="14" viewBox="0 0 14 14" fill="none" xmlns="http://www.w3.org/2000/svg">
<path d="M6.73187 11.4219C6.89551 11.318 7.10449 11.318 7.26813 11.4219L10.309 13.3539C10.6847 13.5926 11.1616 13.2583 11.0653 12.8237L10.2406 9.1026C10.2019 8.92779 10.2596 8.74561 10.3919 8.62496L13.1597 6.10105C13.4812 5.80784 13.3007 5.27228 12.8672 5.23357L9.27198 4.9125C9.08481 4.89578 8.92282 4.77554 8.85264 4.60123L7.46382 1.15194C7.29565 0.734271 6.70435 0.73427 6.53618 1.15194L5.14736 4.60123C5.07718 4.77554 4.91519 4.89578 4.72802 4.9125L1.13278 5.23357C0.699346 5.27228 0.518808 5.80784 0.840348 6.10105L3.60812 8.62496C3.74042 8.74561 3.79811 8.92779 3.75937 9.1026L2.9347 12.8237C2.83839 13.2583 3.31526 13.5926 3.69098 13.3539L6.73187 11.4219Z" fill="#FDD81D"/>
</svg>
