<svg width="24" height="24" viewBox="0 0 20 26" fill="none" xmlns="http://www.w3.org/2000/svg">
<path d="M3.75 7.33333C3.75 3.76649 6.54822 0.875 10 0.875C13.4518 0.875 16.25 3.76649 16.25 7.33333C16.25 10.9002 13.4518 13.7917 10 13.7917C6.54822 13.7917 3.75 10.9002 3.75 7.33333ZM10 11.2083C12.0711 11.2083 13.75 9.47344 13.75 7.33333C13.75 5.19323 12.0711 3.45833 10 3.45833C7.92893 3.45833 6.25 5.19323 6.25 7.33333C6.25 9.47344 7.92893 11.2083 10 11.2083Z" fill="#101010"/>
<path d="M2.92893 18.1099C1.05357 20.0478 0 22.6761 0 25.4167H2.5C2.5 23.3612 3.29018 21.39 4.6967 19.9366C6.10322 18.4832 8.01088 17.6667 10 17.6667C11.9891 17.6667 13.8968 18.4832 15.3033 19.9366C16.7098 21.39 17.5 23.3612 17.5 25.4167H20C20 22.6761 18.9464 20.0478 17.0711 18.1099C15.1957 16.172 12.6522 15.0833 10 15.0833C7.34784 15.0833 4.8043 16.172 2.92893 18.1099Z" fill="#101010"/>
</svg>
