<svg width="20" height="20" viewBox="0 0 19 24" fill="none" xmlns="http://www.w3.org/2000/svg">
<path d="M9.1875 15.1579C11.3663 15.1579 13.125 13.4653 13.125 11.3684V3.78947C13.125 1.69263 11.3663 0 9.1875 0C7.00875 0 5.25 1.69263 5.25 3.78947V11.3684C5.25 13.4653 7.00875 15.1579 9.1875 15.1579Z" fill="#222831"/>
<path d="M15.75 11.3682C15.75 14.8545 12.81 17.684 9.1875 17.684C5.565 17.684 2.625 14.8545 2.625 11.3682H0C0 15.8271 3.42562 19.4903 7.875 20.1092V23.9997H10.5V20.1092C14.9494 19.4903 18.375 15.8271 18.375 11.3682H15.75Z" fill="#222831"/>
</svg>
